<?xml version="1.0" encoding="utf-8"?>
<!-- Generator: Adobe Illustrator 22.0.0, SVG Export Plug-In . SVG Version: 6.00 Build 0)  -->
<svg version="1.1" id="Layer_1" xmlns="http://www.w3.org/2000/svg" xmlns:xlink="http://www.w3.org/1999/xlink" x="0px" y="0px"
	 viewBox="0 0 80 80" style="enable-background:new 0 0 80 80;" xml:space="preserve">
<style type="text/css">
	.st0{fill:#727272;}
</style>
<g>
	<path class="st0" d="M53.8,23l-19,3c-0.5,0.1-0.8,0.5-0.8,1v3.3V33v13.7c-1.2-1-2.8-1.7-4.5-1.7c-3.6,0-6.5,2.7-6.5,6s2.9,6,6.5,6
		c3.5,0,6.4-2.6,6.5-5.9c0,0,0,0,0,0V33.9l17-2.7v9.5c-1.2-1-2.8-1.7-4.5-1.7c-3.6,0-6.5,2.7-6.5,6s2.9,6,6.5,6s6.5-2.7,6.5-6V30v-5
		v-1c0-0.3-0.1-0.6-0.4-0.8C54.4,23,54.1,23,53.8,23z M29.5,55C27,55,25,53.2,25,51s2-4,4.5-4s4.5,1.8,4.5,4S32,55,29.5,55z
		 M36,31.8v-1.5v-2.4l17-2.7v4L36,31.8z M48.5,49C46,49,44,47.2,44,45s2-4,4.5-4s4.5,1.8,4.5,4S51,49,48.5,49z"/>
	<path class="st0" d="M70,24h-4v-4h-4v-4H18v4h-4v4h-4v32h4v4h4v4h44v-4h4v-4h4V24z M12,54V26h2v28H12z M16,58v-2V24v-2h2v36H16z
		 M60,62H20v-2V20v-2h40v2v40V62z M64,58h-2V22h2v2v32V58z M68,54h-2V26h2V54z"/>
</g>
</svg>
