<?xml version="1.0" encoding="utf-8"?>
<!-- Generator: Adobe Illustrator 22.0.0, SVG Export Plug-In . SVG Version: 6.00 Build 0)  -->
<svg version="1.1" id="Layer_1" xmlns="http://www.w3.org/2000/svg" xmlns:xlink="http://www.w3.org/1999/xlink" x="0px" y="0px"
	 viewBox="0 0 42 42" style="enable-background:new 0 0 42 42;" xml:space="preserve">
<style type="text/css">
	.st0{fill:#727272;}
</style>
<g>
	<path class="st0" d="M35.5,0c-0.6,0-1,0.4-1,1v18.1L7.1,0.2C6.8,0,6.4-0.1,6,0.1C5.7,0.3,5.5,0.6,5.5,1v40c0,0.4,0.2,0.7,0.5,0.9
		C6.2,42,6.3,42,6.5,42c0.2,0,0.4-0.1,0.6-0.2l27.4-18.9V41c0,0.6,0.4,1,1,1s1-0.4,1-1V1C36.5,0.4,36.1,0,35.5,0z M7.5,39.1V2.9
		L33.7,21L7.5,39.1z"/>
</g>
</svg>
