<?xml version="1.0" encoding="utf-8"?>
<!-- Generator: Adobe Illustrator 22.0.0, SVG Export Plug-In . SVG Version: 6.00 Build 0)  -->
<svg version="1.1" id="Layer_1" xmlns="http://www.w3.org/2000/svg" xmlns:xlink="http://www.w3.org/1999/xlink" x="0px" y="0px"
	 viewBox="0 0 42 42" style="enable-background:new 0 0 42 42;" xml:space="preserve">
<style type="text/css">
	.st0{fill:#727272;}
</style>
<g>
	<path class="st0" d="M36,0.1c-0.3-0.2-0.7-0.1-1,0.1L7.5,19.1V1c0-0.6-0.4-1-1-1s-1,0.4-1,1v40c0,0.6,0.4,1,1,1s1-0.4,1-1V22.9
		l27.4,18.9c0.2,0.1,0.4,0.2,0.6,0.2c0.2,0,0.3,0,0.5-0.1c0.3-0.2,0.5-0.5,0.5-0.9V1C36.5,0.6,36.3,0.3,36,0.1z M34.5,39.1L8.3,21
		L34.5,2.9V39.1z"/>
</g>
</svg>
