<?xml version="1.0" encoding="utf-8"?>
<!-- Generator: Adobe Illustrator 19.2.1, SVG Export Plug-In . SVG Version: 6.00 Build 0)  -->
<svg version="1.1" id="Layer_1" xmlns="http://www.w3.org/2000/svg" xmlns:xlink="http://www.w3.org/1999/xlink" x="0px" y="0px"
	 width="30px" height="30px" viewBox="0 0 30 30" style="enable-background:new 0 0 30 30;" xml:space="preserve">
<style type="text/css">
	.st0{clip-path:url(#SVGID_3_);}
	.st1{clip-path:url(#SVGID_4_);fill:#1E9EC1;}
	.st2{clip-path:url(#SVGID_7_);}
	.st3{clip-path:url(#SVGID_8_);fill:#FFFFFF;}
	.st4{clip-path:url(#SVGID_11_);}
	.st5{clip-path:url(#SVGID_12_);fill:#FFFFFF;}
	.st6{clip-path:url(#SVGID_15_);}
	.st7{clip-path:url(#SVGID_16_);fill:#FFFFFF;}
</style>
<g>
	<g>
		<defs>
			<rect id="SVGID_1_" width="30" height="30"/>
		</defs>
		<defs>
			<path id="SVGID_2_" d="M15,30c8.3,0,15-6.7,15-15S23.3,0,15,0S0,6.7,0,15S6.7,30,15,30L15,30z M15,30"/>
		</defs>
		<clipPath id="SVGID_3_">
			<use xlink:href="#SVGID_1_"  style="overflow:visible;"/>
		</clipPath>
		<clipPath id="SVGID_4_" class="st0">
			<use xlink:href="#SVGID_2_"  style="overflow:visible;"/>
		</clipPath>
		<rect x="-0.3" y="-0.3" class="st1" width="30.6" height="30.6"/>
	</g>
	<g>
		<defs>
			<rect id="SVGID_5_" width="30" height="30"/>
		</defs>
		<defs>
			<path id="SVGID_6_" d="M19,14c-1.1,0-1.6,0.8-1.6,2.1c0,1.2,0.6,2.1,1.6,2.1c1.2,0,1.6-1.1,1.6-2.1C20.6,15,20.1,14,19,14
				 M16.2,10.8h1.3v3.1h0c0.3-0.6,1.1-0.9,1.7-0.9c1.8,0,2.7,1.4,2.7,3.2c0,1.6-0.8,3.1-2.5,3.1c-0.8,0-1.6-0.2-2-1h0v0.8h-1.2
				L16.2,10.8L16.2,10.8"/>
		</defs>
		<clipPath id="SVGID_7_">
			<use xlink:href="#SVGID_5_"  style="overflow:visible;"/>
		</clipPath>
		<clipPath id="SVGID_8_" class="st2">
			<use xlink:href="#SVGID_6_"  style="overflow:visible;"/>
		</clipPath>
		<rect x="15.9" y="10.5" class="st3" width="6.3" height="9"/>
	</g>
	<g>
		<defs>
			<rect id="SVGID_9_" width="30" height="30"/>
		</defs>
		<defs>
			<path id="SVGID_10_" d="M26.6,15.1C26.5,14.4,26,14,25.3,14c-0.7,0-1.6,0.4-1.6,2.2c0,1,0.4,2.1,1.5,2.1c0.7,0,1.3-0.5,1.4-1.4
				h1.3c-0.2,1.6-1.2,2.4-2.7,2.4c-1.8,0-2.8-1.3-2.8-3.1c0-1.8,1-3.2,2.9-3.2c1.3,0,2.5,0.7,2.6,2.2L26.6,15.1L26.6,15.1"/>
		</defs>
		<clipPath id="SVGID_11_">
			<use xlink:href="#SVGID_9_"  style="overflow:visible;"/>
		</clipPath>
		<clipPath id="SVGID_12_" class="st4">
			<use xlink:href="#SVGID_10_"  style="overflow:visible;"/>
		</clipPath>
		<rect x="22.1" y="12.6" class="st5" width="6.1" height="6.9"/>
	</g>
	<g>
		<defs>
			<rect id="SVGID_13_" width="30" height="30"/>
		</defs>
		<defs>
			<polyline id="SVGID_14_" points="11.7,19.1 2.1,19.1 6.6,10.8 16.2,10.8 11.7,19.1 			"/>
		</defs>
		<clipPath id="SVGID_15_">
			<use xlink:href="#SVGID_13_"  style="overflow:visible;"/>
		</clipPath>
		<clipPath id="SVGID_16_" class="st6">
			<use xlink:href="#SVGID_14_"  style="overflow:visible;"/>
		</clipPath>
		<rect x="1.8" y="10.5" class="st7" width="14.6" height="8.8"/>
	</g>
</g>
</svg>
