<svg xmlns="http://www.w3.org/2000/svg" viewBox="123.3 0 595.3 595.3"><path d="M490.5 357.2V321c2.2-2.7 4.6-5.8 7-9.3 12.3-17.4 22.2-36.7 29.3-57.5 14-6.5 23-20.3 23-36v-39.6c0-9.6-3.4-18.8-9.8-26V99.7c.6-5.5 2.7-38-20.8-64.8C499 11.8 465.8 0 421 0c-45 0-78 11.8-98.4 35-23.4 26.8-21.3 59.3-20.7 64.8v52.7c-6.5 7.3-10 16.5-10 26v39.8c0 12 5.5 23.3 14.8 30.8 9 36 28 63.2 34.8 72v32.7c0 9.7-5.3 18.5-13.7 23L239.3 425c-28.8 15.7-46.6 46-46.6 78.6v32.2c0 45 136.6 58.3 217.5 59.4h238v-238H490.6zm-278 178.6v-32.2c0-25.5 14-49 36.4-61l88.4-48.4c14.8-8 24-23.6 24-40.5V314l-2.3-3c0-.2-24.4-29.6-33.7-70l-1-4-3.3-2c-5.8-3.8-9.2-10-9.2-16.7v-39.7c0-5.6 2.4-10.8 6.7-14.7l3.2-3V98c0-.4-3.5-28 16-50C354 29.4 382 20 420.8 20c38.7 0 66.7 9.5 83 28 19.5 22 16.3 50 16.2 50V161l3.2 3c4.3 3.8 6.7 9 6.7 14.6v39.7c0 8.6-5.6 16.2-14 18.8l-5 1.6-1.6 5c-6.6 20.6-16 39.7-28 56.6-3 4.2-6 8-8.4 10.7l-2.4 2.7v43.5h-60.3v218.2c-128-1.4-197.7-26.5-197.7-39.6zm418 41.5H428.2V375h202.3v202.3z"/><path d="M521.4 559.6h16v-75.4h75.3v-16h-75.4V393h-16v75.3H446v16h75.4"/></svg>