<svg id="HOME" xmlns="http://www.w3.org/2000/svg" viewBox="0 0 120 37.98"><defs><style>.cls-1{fill:#f7931e;}</style></defs><title>logos</title><g id="LOGO"><path class="cls-1" d="M10.54,25a8.69,8.69,0,0,1,.08-1.2q0.08-.55.23-1.19h2.38v1a9.19,9.19,0,0,0,.1,1.44,3.38,3.38,0,0,0,.33,1.06,1.58,1.58,0,0,0,.61.65,1.87,1.87,0,0,0,.94.22,1.77,1.77,0,0,0,1.34-.48,1.94,1.94,0,0,0,.46-1.4,5.38,5.38,0,0,0-.06-0.87,3.62,3.62,0,0,0-.22-0.79,5.37,5.37,0,0,0-.43-0.82,10.74,10.74,0,0,0-.7-1L12.4,17.84a9.52,9.52,0,0,1-1.31-2.19,6.06,6.06,0,0,1-.46-2.36,5.23,5.23,0,0,1,.31-1.84,4.12,4.12,0,0,1,.9-1.45,4,4,0,0,1,1.46-.95,5.41,5.41,0,0,1,2-.34,5.73,5.73,0,0,1,2.23.38,3.81,3.81,0,0,1,1.42,1,3.6,3.6,0,0,1,.75,1.38A5.53,5.53,0,0,1,19.89,13a6.68,6.68,0,0,1-.1,1.2q-0.1.55-.23,1.21H17.19v-1A5.3,5.3,0,0,0,16.73,12a1.58,1.58,0,0,0-1.5-.86,1.64,1.64,0,0,0-1.29.48,1.86,1.86,0,0,0-.43,1.28,4.14,4.14,0,0,0,.06.77,3,3,0,0,0,.19.63,3.68,3.68,0,0,0,.3.56q0.18,0.27.4,0.57L18,19.72a12.29,12.29,0,0,1,1.49,2.43A6,6,0,0,1,20,24.61a5.29,5.29,0,0,1-.34,1.94,4,4,0,0,1-1,1.47,4.27,4.27,0,0,1-1.51.93,5.77,5.77,0,0,1-2,.32A6.1,6.1,0,0,1,13,28.9a3.81,3.81,0,0,1-1.44-1,3.46,3.46,0,0,1-.76-1.37A5.71,5.71,0,0,1,10.54,25Z"/><path class="cls-1" d="M27.33,29.25a7.87,7.87,0,0,1-1.05-.08,4.09,4.09,0,0,1-1.12-.32,4.11,4.11,0,0,1-2-1.9,7.14,7.14,0,0,1-.63-1.84,12.49,12.49,0,0,1-.24-2.61V15.36a12.09,12.09,0,0,1,.24-2.61,7,7,0,0,1,.64-1.82,4.08,4.08,0,0,1,.92-1.18,4,4,0,0,1,1.08-.67,4.4,4.4,0,0,1,1.12-.3,8.16,8.16,0,0,1,1-.07,8.57,8.57,0,0,1,1,.06,4.35,4.35,0,0,1,1.1.28,4,4,0,0,1,1.07.65,3.94,3.94,0,0,1,.92,1.17,7,7,0,0,1,.64,1.83,12.39,12.39,0,0,1,.24,2.64v7.15a11.68,11.68,0,0,1-.25,2.58,7.39,7.39,0,0,1-.65,1.83,4.18,4.18,0,0,1-.93,1.21,4.61,4.61,0,0,1-1.08.71,4.06,4.06,0,0,1-1.09.34A6.58,6.58,0,0,1,27.33,29.25Zm0-2.3a1.88,1.88,0,0,0,.79-0.15,1.24,1.24,0,0,0,.56-0.53,3.12,3.12,0,0,0,.33-1,9,9,0,0,0,.11-1.57V14.52A9.75,9.75,0,0,0,29,12.9a3.37,3.37,0,0,0-.33-1,1.29,1.29,0,0,0-.56-0.56,1.76,1.76,0,0,0-.79-0.17,1.83,1.83,0,0,0-.8.17,1.32,1.32,0,0,0-.57.56,3.26,3.26,0,0,0-.34,1,9.75,9.75,0,0,0-.11,1.62V23.7a9,9,0,0,0,.11,1.57,3,3,0,0,0,.34,1,1.26,1.26,0,0,0,.57.53A2,2,0,0,0,27.33,27Z"/><path class="cls-1" d="M35.37,8.89h3.08v14.8a10.83,10.83,0,0,0,.09,1.57,3,3,0,0,0,.3,1,1.24,1.24,0,0,0,.53.53,1.74,1.74,0,0,0,.77.16,1.82,1.82,0,0,0,.79-0.16,1.28,1.28,0,0,0,.56-0.53,3.05,3.05,0,0,0,.33-1,9.14,9.14,0,0,0,.11-1.57V8.89h3v14a11.69,11.69,0,0,1-.24,2.53,6.72,6.72,0,0,1-.63,1.76,3.81,3.81,0,0,1-.89,1.12,4,4,0,0,1-2.11.91,8.84,8.84,0,0,1-1,.06,8.68,8.68,0,0,1-1-.06,3.92,3.92,0,0,1-2.09-.91,3.86,3.86,0,0,1-.89-1.12,6.59,6.59,0,0,1-.62-1.75,12,12,0,0,1-.23-2.53v-14Z"/><path class="cls-1" d="M48.61,8.89h2.48L56,22.4h0.07q0-.47-0.09-1.05T55.85,20q0-.74-0.08-1.67t0-2.1V8.89h2.74V29.08H56L51.1,15.93H51q0,0.53.09,1.15t0.11,1.46q0,0.84.08,2t0,2.65v5.93H48.61V8.89Z"/><path class="cls-1" d="M62.17,8.89h3.18q0.72,0,1.49,0a6.75,6.75,0,0,1,1.51.25,4.9,4.9,0,0,1,1.39.66,4,4,0,0,1,1.15,1.24,6.79,6.79,0,0,1,.79,2,12.94,12.94,0,0,1,.29,3v5.86a13,13,0,0,1-.29,3,6.7,6.7,0,0,1-.79,2,4.06,4.06,0,0,1-1.15,1.23,4.9,4.9,0,0,1-1.39.66,6.75,6.75,0,0,1-1.51.25q-0.77,0-1.49,0H62.17V8.89Zm3.84,18a3.75,3.75,0,0,0,1.36-.21A1.69,1.69,0,0,0,68.22,26a3.92,3.92,0,0,0,.43-1.47,19.14,19.14,0,0,0,.12-2.35V15.9a19.14,19.14,0,0,0-.12-2.35,3.92,3.92,0,0,0-.43-1.47,1.69,1.69,0,0,0-.85-0.75A3.75,3.75,0,0,0,66,11.13H65.23V26.94H66Z"/><path class="cls-1" d="M74.95,8.89H78q0.69,0,1.42,0a9.47,9.47,0,0,1,1.43.2,6,6,0,0,1,1.32.45,3.58,3.58,0,0,1,1.09.81,3.77,3.77,0,0,1,.74,1.26,5.2,5.2,0,0,1,.28,1.8v1a4.54,4.54,0,0,1-.23,1.48,4.38,4.38,0,0,1-.61,1.19,3.68,3.68,0,0,1-.86.85,2.88,2.88,0,0,1-1,.45v0.09a3.28,3.28,0,0,1,2.26,1.42,5.24,5.24,0,0,1,.76,2.95v1a6.69,6.69,0,0,1-.24,1.91,4.28,4.28,0,0,1-.68,1.38,3.75,3.75,0,0,1-1,.94,5.4,5.4,0,0,1-1.32.57,8.43,8.43,0,0,1-1.54.28q-0.82.08-1.68,0.08H74.95V8.89Zm3.59,8.64a4,4,0,0,0,1.12-.15,2.27,2.27,0,0,0,.87-0.46,2,2,0,0,0,.56-0.82,3.35,3.35,0,0,0,.19-1.21V14.07a5,5,0,0,0-.14-1.25,2.27,2.27,0,0,0-.47-0.92,2,2,0,0,0-.85-0.57,3.71,3.71,0,0,0-1.28-.19H78v6.4h0.59ZM78.82,27a3.68,3.68,0,0,0,1.12-.16,2.15,2.15,0,0,0,1.42-1.35,3.5,3.5,0,0,0,.19-1.23V22.64a5.06,5.06,0,0,0-.14-1.26,2.22,2.22,0,0,0-.47-0.92,2.05,2.05,0,0,0-.84-0.57,3.65,3.65,0,0,0-1.28-.19H78V27h0.87Z"/><path class="cls-1" d="M92,29.25A7.87,7.87,0,0,1,91,29.18a4.09,4.09,0,0,1-1.12-.32,4.11,4.11,0,0,1-2-1.9,7.14,7.14,0,0,1-.63-1.84A12.49,12.49,0,0,1,87,22.51V15.36a12.09,12.09,0,0,1,.24-2.61,7,7,0,0,1,.64-1.82,4.08,4.08,0,0,1,.92-1.18,4,4,0,0,1,1.08-.67A4.4,4.4,0,0,1,91,8.79a8.16,8.16,0,0,1,1-.07,8.57,8.57,0,0,1,1,.06,4.35,4.35,0,0,1,1.1.28,4,4,0,0,1,1.07.65,3.94,3.94,0,0,1,.92,1.17,7,7,0,0,1,.64,1.83A12.39,12.39,0,0,1,97,15.36v7.15a11.68,11.68,0,0,1-.25,2.58,7.39,7.39,0,0,1-.65,1.83,4.18,4.18,0,0,1-.93,1.21,4.61,4.61,0,0,1-1.08.71,4.06,4.06,0,0,1-1.09.34A6.58,6.58,0,0,1,92,29.25ZM92,27a1.88,1.88,0,0,0,.79-0.15,1.24,1.24,0,0,0,.56-0.53,3.12,3.12,0,0,0,.33-1,9,9,0,0,0,.11-1.57V14.52a9.75,9.75,0,0,0-.11-1.62,3.37,3.37,0,0,0-.33-1,1.29,1.29,0,0,0-.56-0.56A1.76,1.76,0,0,0,92,11.13a1.83,1.83,0,0,0-.8.17,1.32,1.32,0,0,0-.57.56,3.26,3.26,0,0,0-.34,1,9.75,9.75,0,0,0-.11,1.62V23.7a9,9,0,0,0,.11,1.57,3,3,0,0,0,.34,1,1.26,1.26,0,0,0,.57.53A2,2,0,0,0,92,27Z"/><path class="cls-1" d="M102.49,18.91l-3.69-10h3.27L104,15.35h0.12L106,8.89h3.17l-3.7,10,3.7,10.15H106l-1.91-6.49h-0.2l-2,6.49h-3Z"/><path class="cls-1" d="M120,38H0l3.7-19.1L0,0H120l-4,18.88ZM2.35,35.63h115l-3.36-16.75,3.36-16.53H2.35L5.71,18.88Z"/></g><g id="LOGO-2" data-name="LOGO"><path class="cls-1" d="M10.54,25a8.69,8.69,0,0,1,.08-1.2q0.08-.55.23-1.19h2.38v1a9.19,9.19,0,0,0,.1,1.44,3.38,3.38,0,0,0,.33,1.06,1.58,1.58,0,0,0,.61.65,1.87,1.87,0,0,0,.94.22,1.77,1.77,0,0,0,1.34-.48,1.94,1.94,0,0,0,.46-1.4,5.38,5.38,0,0,0-.06-0.87,3.62,3.62,0,0,0-.22-0.79,5.37,5.37,0,0,0-.43-0.82,10.74,10.74,0,0,0-.7-1L12.4,17.84a9.52,9.52,0,0,1-1.31-2.19,6.06,6.06,0,0,1-.46-2.36,5.23,5.23,0,0,1,.31-1.84,4.12,4.12,0,0,1,.9-1.45,4,4,0,0,1,1.46-.95,5.41,5.41,0,0,1,2-.34,5.73,5.73,0,0,1,2.23.38,3.81,3.81,0,0,1,1.42,1,3.6,3.6,0,0,1,.75,1.38A5.53,5.53,0,0,1,19.89,13a6.68,6.68,0,0,1-.1,1.2q-0.1.55-.23,1.21H17.19v-1A5.3,5.3,0,0,0,16.73,12a1.58,1.58,0,0,0-1.5-.86,1.64,1.64,0,0,0-1.29.48,1.86,1.86,0,0,0-.43,1.28,4.14,4.14,0,0,0,.06.77,3,3,0,0,0,.19.63,3.68,3.68,0,0,0,.3.56q0.18,0.27.4,0.57L18,19.72a12.29,12.29,0,0,1,1.49,2.43A6,6,0,0,1,20,24.61a5.29,5.29,0,0,1-.34,1.94,4,4,0,0,1-1,1.47,4.27,4.27,0,0,1-1.51.93,5.77,5.77,0,0,1-2,.32A6.1,6.1,0,0,1,13,28.9a3.81,3.81,0,0,1-1.44-1,3.46,3.46,0,0,1-.76-1.37A5.71,5.71,0,0,1,10.54,25Z"/><path class="cls-1" d="M27.33,29.25a7.87,7.87,0,0,1-1.05-.08,4.09,4.09,0,0,1-1.12-.32,4.11,4.11,0,0,1-2-1.9,7.14,7.14,0,0,1-.63-1.84,12.49,12.49,0,0,1-.24-2.61V15.36a12.09,12.09,0,0,1,.24-2.61,7,7,0,0,1,.64-1.82,4.08,4.08,0,0,1,.92-1.18,4,4,0,0,1,1.08-.67,4.4,4.4,0,0,1,1.12-.3,8.16,8.16,0,0,1,1-.07,8.57,8.57,0,0,1,1,.06,4.35,4.35,0,0,1,1.1.28,4,4,0,0,1,1.07.65,3.94,3.94,0,0,1,.92,1.17,7,7,0,0,1,.64,1.83,12.39,12.39,0,0,1,.24,2.64v7.15a11.68,11.68,0,0,1-.25,2.58,7.39,7.39,0,0,1-.65,1.83,4.18,4.18,0,0,1-.93,1.21,4.61,4.61,0,0,1-1.08.71,4.06,4.06,0,0,1-1.09.34A6.58,6.58,0,0,1,27.33,29.25Zm0-2.3a1.88,1.88,0,0,0,.79-0.15,1.24,1.24,0,0,0,.56-0.53,3.12,3.12,0,0,0,.33-1,9,9,0,0,0,.11-1.57V14.52A9.75,9.75,0,0,0,29,12.9a3.37,3.37,0,0,0-.33-1,1.29,1.29,0,0,0-.56-0.56,1.76,1.76,0,0,0-.79-0.17,1.83,1.83,0,0,0-.8.17,1.32,1.32,0,0,0-.57.56,3.26,3.26,0,0,0-.34,1,9.75,9.75,0,0,0-.11,1.62V23.7a9,9,0,0,0,.11,1.57,3,3,0,0,0,.34,1,1.26,1.26,0,0,0,.57.53A2,2,0,0,0,27.33,27Z"/><path class="cls-1" d="M35.37,8.89h3.08v14.8a10.83,10.83,0,0,0,.09,1.57,3,3,0,0,0,.3,1,1.24,1.24,0,0,0,.53.53,1.74,1.74,0,0,0,.77.16,1.82,1.82,0,0,0,.79-0.16,1.28,1.28,0,0,0,.56-0.53,3.05,3.05,0,0,0,.33-1,9.14,9.14,0,0,0,.11-1.57V8.89h3v14a11.69,11.69,0,0,1-.24,2.53,6.72,6.72,0,0,1-.63,1.76,3.81,3.81,0,0,1-.89,1.12,4,4,0,0,1-2.11.91,8.84,8.84,0,0,1-1,.06,8.68,8.68,0,0,1-1-.06,3.92,3.92,0,0,1-2.09-.91,3.86,3.86,0,0,1-.89-1.12,6.59,6.59,0,0,1-.62-1.75,12,12,0,0,1-.23-2.53v-14Z"/><path class="cls-1" d="M48.61,8.89h2.48L56,22.4h0.07q0-.47-0.09-1.05T55.85,20q0-.74-0.08-1.67t0-2.1V8.89h2.74V29.08H56L51.1,15.93H51q0,0.53.09,1.15t0.11,1.46q0,0.84.08,2t0,2.65v5.93H48.61V8.89Z"/><path class="cls-1" d="M62.17,8.89h3.18q0.72,0,1.49,0a6.75,6.75,0,0,1,1.51.25,4.9,4.9,0,0,1,1.39.66,4,4,0,0,1,1.15,1.24,6.79,6.79,0,0,1,.79,2,12.94,12.94,0,0,1,.29,3v5.86a13,13,0,0,1-.29,3,6.7,6.7,0,0,1-.79,2,4.06,4.06,0,0,1-1.15,1.23,4.9,4.9,0,0,1-1.39.66,6.75,6.75,0,0,1-1.51.25q-0.77,0-1.49,0H62.17V8.89Zm3.84,18a3.75,3.75,0,0,0,1.36-.21A1.69,1.69,0,0,0,68.22,26a3.92,3.92,0,0,0,.43-1.47,19.14,19.14,0,0,0,.12-2.35V15.9a19.14,19.14,0,0,0-.12-2.35,3.92,3.92,0,0,0-.43-1.47,1.69,1.69,0,0,0-.85-0.75A3.75,3.75,0,0,0,66,11.13H65.23V26.94H66Z"/><path class="cls-1" d="M74.95,8.89H78q0.69,0,1.42,0a9.47,9.47,0,0,1,1.43.2,6,6,0,0,1,1.32.45,3.58,3.58,0,0,1,1.09.81,3.77,3.77,0,0,1,.74,1.26,5.2,5.2,0,0,1,.28,1.8v1a4.54,4.54,0,0,1-.23,1.48,4.38,4.38,0,0,1-.61,1.19,3.68,3.68,0,0,1-.86.85,2.88,2.88,0,0,1-1,.45v0.09a3.28,3.28,0,0,1,2.26,1.42,5.24,5.24,0,0,1,.76,2.95v1a6.69,6.69,0,0,1-.24,1.91,4.28,4.28,0,0,1-.68,1.38,3.75,3.75,0,0,1-1,.94,5.4,5.4,0,0,1-1.32.57,8.43,8.43,0,0,1-1.54.28q-0.82.08-1.68,0.08H74.95V8.89Zm3.59,8.64a4,4,0,0,0,1.12-.15,2.27,2.27,0,0,0,.87-0.46,2,2,0,0,0,.56-0.82,3.35,3.35,0,0,0,.19-1.21V14.07a5,5,0,0,0-.14-1.25,2.27,2.27,0,0,0-.47-0.92,2,2,0,0,0-.85-0.57,3.71,3.71,0,0,0-1.28-.19H78v6.4h0.59ZM78.82,27a3.68,3.68,0,0,0,1.12-.16,2.15,2.15,0,0,0,1.42-1.35,3.5,3.5,0,0,0,.19-1.23V22.64a5.06,5.06,0,0,0-.14-1.26,2.22,2.22,0,0,0-.47-0.92,2.05,2.05,0,0,0-.84-0.57,3.65,3.65,0,0,0-1.28-.19H78V27h0.87Z"/><path class="cls-1" d="M92,29.25A7.87,7.87,0,0,1,91,29.18a4.09,4.09,0,0,1-1.12-.32,4.11,4.11,0,0,1-2-1.9,7.14,7.14,0,0,1-.63-1.84A12.49,12.49,0,0,1,87,22.51V15.36a12.09,12.09,0,0,1,.24-2.61,7,7,0,0,1,.64-1.82,4.08,4.08,0,0,1,.92-1.18,4,4,0,0,1,1.08-.67A4.4,4.4,0,0,1,91,8.79a8.16,8.16,0,0,1,1-.07,8.57,8.57,0,0,1,1,.06,4.35,4.35,0,0,1,1.1.28,4,4,0,0,1,1.07.65,3.94,3.94,0,0,1,.92,1.17,7,7,0,0,1,.64,1.83A12.39,12.39,0,0,1,97,15.36v7.15a11.68,11.68,0,0,1-.25,2.58,7.39,7.39,0,0,1-.65,1.83,4.18,4.18,0,0,1-.93,1.21,4.61,4.61,0,0,1-1.08.71,4.06,4.06,0,0,1-1.09.34A6.58,6.58,0,0,1,92,29.25ZM92,27a1.88,1.88,0,0,0,.79-0.15,1.24,1.24,0,0,0,.56-0.53,3.12,3.12,0,0,0,.33-1,9,9,0,0,0,.11-1.57V14.52a9.75,9.75,0,0,0-.11-1.62,3.37,3.37,0,0,0-.33-1,1.29,1.29,0,0,0-.56-0.56A1.76,1.76,0,0,0,92,11.13a1.83,1.83,0,0,0-.8.17,1.32,1.32,0,0,0-.57.56,3.26,3.26,0,0,0-.34,1,9.75,9.75,0,0,0-.11,1.62V23.7a9,9,0,0,0,.11,1.57,3,3,0,0,0,.34,1,1.26,1.26,0,0,0,.57.53A2,2,0,0,0,92,27Z"/><path class="cls-1" d="M102.49,18.91l-3.69-10h3.27L104,15.35h0.12L106,8.89h3.17l-3.7,10,3.7,10.15H106l-1.91-6.49h-0.2l-2,6.49h-3Z"/><path class="cls-1" d="M120,38H0l3.7-19.1L0,0H120l-4,18.88ZM2.35,35.63h115l-3.36-16.75,3.36-16.53H2.35L5.71,18.88Z"/></g></svg>