<?xml version="1.0" encoding="utf-8"?>
<!-- Generator: Adobe Illustrator 19.2.1, SVG Export Plug-In . SVG Version: 6.00 Build 0)  -->
<svg version="1.1" id="Layer_1" xmlns="http://www.w3.org/2000/svg" xmlns:xlink="http://www.w3.org/1999/xlink" x="0px" y="0px"
	 width="24px" height="24px" viewBox="0 0 24 24" style="enable-background:new 0 0 24 24;" xml:space="preserve">
<style type="text/css">
	.st0{fill:#FFFFFF;}
</style>
<g>
	<circle cx="12" cy="12" r="12"/>
	<path class="st0" d="M12,14.9c-2.9,0-5.8,0-8.6,0c-0.3,0-0.3,0-0.3-0.3c0-1.7,0-3.4,0-5.2c0-0.3,0-0.3,0.3-0.3c0.6,0,1.2,0,1.9,0
		c0.2,0,0.2,0,0.2,0.2c0,1,0,2,0,3c0,0.2,0,0.2,0.2,0.2c4.3,0,8.6,0,12.8,0c0.2,0,0.2,0,0.2-0.2c0-1,0-2,0-3c0-0.2,0-0.2,0.2-0.2
		c0.7,0,1.3,0,2,0c0.2,0,0.2,0,0.2,0.2c0,0,0,0.1,0,0.1c0,1.7,0,3.5,0,5.2c0,0.3,0,0.3-0.3,0.3C17.8,14.9,14.9,14.9,12,14.9z"/>
</g>
</svg>
