<?xml version="1.0" encoding="utf-8"?>
<!-- Generator: Adobe Illustrator 16.0.3, SVG Export Plug-In . SVG Version: 6.00 Build 0)  -->
<!DOCTYPE svg PUBLIC "-//W3C//DTD SVG 1.1//EN" "http://www.w3.org/Graphics/SVG/1.1/DTD/svg11.dtd">
<svg version="1.1" id="Capa_1" xmlns="http://www.w3.org/2000/svg" xmlns:xlink="http://www.w3.org/1999/xlink" x="0px" y="0px"
	 width="128px" height="128px" viewBox="0 0 128 128" enable-background="new 0 0 128 128" xml:space="preserve">
<g>
	<path d="M64,90.04c0.669,0,1.212-0.542,1.212-1.211V48.86c0-0.669-0.543-1.211-1.212-1.211c-0.668,0-1.211,0.542-1.211,1.211
		v39.969C62.789,89.498,63.332,90.04,64,90.04z"/>
	<path d="M51.889,90.04c0.668,0,1.211-0.542,1.211-1.211V48.86c0-0.669-0.542-1.211-1.211-1.211c-0.669,0-1.211,0.542-1.211,1.211
		v39.969C50.677,89.498,51.22,90.04,51.889,90.04z"/>
	<path d="M76.112,90.04c0.668,0,1.211-0.542,1.211-1.211V48.86c0-0.669-0.543-1.211-1.211-1.211c-0.669,0-1.212,0.542-1.212,1.211
		v39.969C74.9,89.498,75.443,90.04,76.112,90.04z"/>
	<path d="M91.857,35.538H74.847c-0.133-1.514-0.6-4.067-2.195-5.706c-1.01-1.036-2.291-1.562-3.808-1.562H56.733
		c-1.516,0-2.797,0.526-3.808,1.562c-1.596,1.639-2.063,4.192-2.196,5.706H36.143c-0.668,0-1.211,0.542-1.211,1.211
		c0,0.669,0.543,1.211,1.211,1.211h2.472l2.319,55.739c0.045,2.085,1.343,6.03,5.944,6.03h34.242c4.602,0,5.899-3.945,5.943-6.005
		l2.32-55.765h2.473c0.668,0,1.211-0.542,1.211-1.211C93.068,36.079,92.525,35.538,91.857,35.538z M54.665,31.518
		c0.542-0.555,1.22-0.825,2.068-0.825h12.111c0.85,0,1.525,0.27,2.068,0.825c0.976,0.997,1.366,2.75,1.502,4.02h-19.25
		C53.299,34.268,53.69,32.515,54.665,31.518z M84.643,93.648c-0.007,0.374-0.174,3.658-3.521,3.658H46.879
		c-3.311,0-3.51-3.29-3.523-3.684L41.039,37.96H86.96L84.643,93.648z"/>
</g>
<path d="M0,0v128h128V0H0z M123.733,123.733H4.267V4.267h119.467V123.733z"/>
</svg>
