<svg xmlns="http://www.w3.org/2000/svg" viewBox="123.3 0 595.3 595.3"><path d="M123.3 0v595.3h595.3V0H123.3zm575.4 575.4H143V19.8h555.7v555.6z"/><path d="M629.7 205.5l-36 18.5c-8.7-12.2-18.5-21.5-34.2-21.6-16.8-.2-31 8.5-34.4 22-4 15.4 2 27.6 19.5 35.2 16.6 7.2 34.6 11.2 51 18.7 14 6.3 29.3 13 39.3 24 33.5 37 21.3 97.6-24 120.7-58.6 30-114 15-143.8-45.4-19-38.5-35-78.6-52.3-118-13.5-30.6-37.5-48.2-70-54-51.5-9.4-98.6 23.3-108.5 74.8-8.6 44.5 13.7 86.8 54.8 104.2 43.2 18.3 88.8 5.4 115.3-32.6l11-15.7c7.7 18 14.4 33 20.4 48.3.6 1.5-2.6 5-4.5 7-39.5 44-101.7 59-154.8 37.3-58-23.8-94-77.5-90-137.7 3.4-55.8 32.5-95.7 82-120.4 47.5-23.7 94.3-17 137 11 21.8 14 38.6 35.2 49.3 60 17 39 34.5 77.7 50.6 117.2 14.3 35 49 40.4 76.8 28.5 16-7 24-20 24-37 .2-16-11.5-23.6-24.4-29-18.7-7.7-38-14-56.6-22-42.8-18-59-59.6-39-99.7 15-30.2 41.7-40 73.4-39 30.4 1 52 16.7 68.3 44.5z"/></svg>