<svg xmlns="http://www.w3.org/2000/svg" viewBox="123.3 0 595.3 595.3"><path d="M123.3 0v595.3h595.3V0H123.3zm575.4 575.4H143V19.8h555.7v555.6z"/><path d="M575 302.8c-40.6-.5-73-34-72.5-75 .7-40 34-72.3 74-72 41 .5 74.3 34 73.7 74.4-.6 40.6-34.2 73-75 72.6zM576 439.3c-22.4 0-44.7-.3-67 0-9.8.3-14.8-3-13.8-13.3 1.7-17.2.7-35.3 5.8-51.5 11.7-37 50-59.5 86.4-54 38 6 69 39.7 69.3 78.6.6 49.2 7 39-38.6 40.2-14 .3-28 0-42 0zM471.3 251c-.3 36-29.8 65.5-65.8 65.6-36.8.2-66.5-29.4-66.5-66.3 0-36.8 29.7-66.4 66.5-66 36.8 0 66 30 65.8 66.8zM404.6 439.2c-20 0-39.7.4-59.5-.4-4.3-.2-12.5-5.3-12.3-7.5 2-20 1.8-41 9-59.2 12-29.2 44.3-44 74-39.2 31 5 56.4 30 61 61.7 1.5 11 .8 22.2 1.3 33.3.4 9-4 11.6-12.5 11.5-20.3-.4-40.6 0-61 0zM309 268.7c.3 33.5-26 60-59.6 60-32.7 0-59.2-26.3-59.5-59-.4-33 26.5-60 59.7-60 32.8.2 59 26.3 59.3 59zM249 439.2c-17.8 0-35.8.4-53.7-.4-3.8-.2-11-5.3-10.8-7.5 2-18 2-37.2 8.7-53.5 11-26.2 40-38.8 67.6-34 27 4.7 49.7 28.5 53.5 56.3 5.2 38.4 4.6 39.2-33.2 39.2h-32z"/></svg>