<?xml version="1.0" encoding="utf-8"?>
<!-- Generator: Adobe Illustrator 16.0.3, SVG Export Plug-In . SVG Version: 6.00 Build 0)  -->
<!DOCTYPE svg PUBLIC "-//W3C//DTD SVG 1.1//EN" "http://www.w3.org/Graphics/SVG/1.1/DTD/svg11.dtd">
<svg version="1.1" id="Capa_1" xmlns="http://www.w3.org/2000/svg" xmlns:xlink="http://www.w3.org/1999/xlink" x="0px" y="0px"
	 width="128px" height="128px" viewBox="0 0 128 128" enable-background="new 0 0 128 128" xml:space="preserve">
<path d="M97.201,62.238l-46.934-32c-0.655-0.444-1.5-0.493-2.199-0.124c-0.698,0.369-1.135,1.094-1.135,1.886v64
	c0,0.791,0.438,1.517,1.137,1.886c0.312,0.167,0.655,0.247,0.997,0.247c0.42,0,0.84-0.125,1.201-0.371l46.934-32
	c0.582-0.396,0.932-1.056,0.932-1.762S97.783,62.635,97.201,62.238z M51.2,91.961V36.039L92.213,64L51.2,91.961z"/>
<path d="M0,0v128h128V0H0z M123.733,123.733H4.267V4.267h119.467V123.733z"/>
</svg>
