<svg xmlns="http://www.w3.org/2000/svg" viewBox="123.3 0 595.3 595.3"><path d="M123.3 0v595.3h595.3V0H123.3zm575.4 575.4H143V19.8h555.7v555.6z"/><path d="M581.2 273.4c-4.5 0-9 .5-13.3 1.3-4.8-22.6-16.5-43.3-33.8-59.2-20.6-19-47.5-29.5-75.5-29.5-13.7 0-27.7 2.6-40.5 7.5-5.5 2.2-8.3 8.4-6 14 2 5.5 8.3 8.3 13.8 6 10.3-4 21.6-6 32.7-6 47 0 85.5 35.3 89.7 82 .3 3.5 2.2 6.6 5 8.4 3 1.7 6.7 2 10 .6 5.5-2.4 11.6-3.6 17.8-3.6 25.6 0 46.4 20.8 46.4 46.4 0 25.5-20.8 46.3-46.4 46.3H423c-5.5-.2-10.3 4-11 9.5-.6 6 3.7 11.3 9.6 12h159.6c37.4 0 68-30.4 68-67.8 0-37.5-30.6-68-68-68zM203.6 290.7c-6 0-10.8 4.8-10.8 10.8v86.2c0 6 4.8 10.8 10.8 10.8 6 0 10.7-4.8 10.7-10.8v-86.2c0-6-4.8-10.8-10.7-10.8zM258.8 273.6c-6 0-10.8 4.8-10.8 10.8v102c0 6 4.8 11 10.8 11s10.7-5 10.7-11v-102c0-6-4.8-10.8-10.7-10.8zM315.3 228c-6 0-10.8 4.7-10.8 10.6v159.6c0 6 5 10.7 10.8 10.7 6 0 10.8-5 10.8-10.8V238.6c0-6-4.7-10.7-10.7-10.7zM373.2 229.7c-6 0-10.8 4.8-10.8 10.8v157.8c0 6 5 10.8 10.8 10.8 6 0 10.8-4.7 10.8-10.7V240.5c0-6-4.8-10.8-10.8-10.8z"/></svg>